<svg xmlns="http://www.w3.org/2000/svg" width="129.67" height="132.31" viewBox="0 0 129.67 132.31"><defs><style>.cls-1{opacity:0.47;}.cls-2{fill:#fff;}</style></defs><title>Asset 2</title><g id="Layer_2" data-name="Layer 2"><g id="badger_and_bear" data-name="badger and bear"><g class="cls-1"><path class="cls-2" d="M16.59,93.26,15,100c0,.22-.1.4-.14.52a.65.65,0,0,1-.19.31.53.53,0,0,1-.36.1q-.6,0-.6-.51a4.28,4.28,0,0,1,.12-.67L15.41,93a3,3,0,0,1,.25-.74.48.48,0,0,1,.45-.2.65.65,0,0,1,.45.14.5.5,0,0,1,.16.39A2.88,2.88,0,0,1,16.59,93.26Z"/><path class="cls-2" d="M19.82,93.65c.26-.11.5-.23.73-.35L21.1,93a1.1,1.1,0,0,1,.33-.08.52.52,0,0,1,.35.14.45.45,0,0,1,.15.34.5.5,0,0,1-.07.25.41.41,0,0,1-.16.16,7.47,7.47,0,0,1-1.66.43c.11.1.24.24.4.41l.26.26a2.4,2.4,0,0,0,.24.31,2.27,2.27,0,0,1,.22.28.49.49,0,0,1,.06.25.42.42,0,0,1-.14.33.49.49,0,0,1-.36.14c-.15,0-.32-.11-.5-.34a6.83,6.83,0,0,1-.72-1.25l-.6,1.07a2,2,0,0,1-.29.39.44.44,0,0,1-.32.13.46.46,0,0,1-.36-.15.44.44,0,0,1-.15-.32.43.43,0,0,1,.06-.24A8.86,8.86,0,0,1,19,94.28c-.33,0-.62-.11-.88-.17a5.22,5.22,0,0,1-.82-.27.35.35,0,0,1-.14-.17.43.43,0,0,1-.07-.23.45.45,0,0,1,.15-.34.51.51,0,0,1,.34-.14.94.94,0,0,1,.36.09c.14,0,.32.14.53.24l.74.36a7.68,7.68,0,0,1-.12-.84,5.59,5.59,0,0,1,0-.66.52.52,0,0,1,.14-.37.48.48,0,0,1,.7,0,.62.62,0,0,1,.14.41s0,.14,0,.28,0,.31-.06.51S19.85,93.4,19.82,93.65Z"/><path class="cls-2" d="M27.14,92.22h2.27a6.16,6.16,0,0,1,1.52.16,2.77,2.77,0,0,1,1.14.62,4.32,4.32,0,0,1,1.35,3.49,6.73,6.73,0,0,1-.14,1.41,4.34,4.34,0,0,1-.41,1.15,3.41,3.41,0,0,1-.73.92,3.07,3.07,0,0,1-.75.5,3.59,3.59,0,0,1-.88.26,6.87,6.87,0,0,1-1.07.08H27.18a1.38,1.38,0,0,1-.72-.15.65.65,0,0,1-.31-.4,2.48,2.48,0,0,1-.08-.68v-6.3a1.11,1.11,0,0,1,.26-.81A1.09,1.09,0,0,1,27.14,92.22Zm.67,1.38v5.83h1.32a5.89,5.89,0,0,0,.68,0,1.58,1.58,0,0,0,.51-.12,1.38,1.38,0,0,0,.46-.26,3.18,3.18,0,0,0,.87-2.54,3.85,3.85,0,0,0-.38-1.91,1.69,1.69,0,0,0-.95-.8A4.51,4.51,0,0,0,29,93.6Z"/><path class="cls-2" d="M40.61,93.56H36.69v2.11h3.6a.86.86,0,0,1,.6.18.6.6,0,0,1,.2.47.64.64,0,0,1-.2.48.86.86,0,0,1-.6.18h-3.6v2.45h4.05a.89.89,0,0,1,.62.19.63.63,0,0,1,.21.5.64.64,0,0,1-.21.5.94.94,0,0,1-.62.19H36A.9.9,0,0,1,35,99.74V93.28a1.36,1.36,0,0,1,.11-.61.65.65,0,0,1,.35-.34,1.31,1.31,0,0,1,.6-.11h4.6a.89.89,0,0,1,.61.18.68.68,0,0,1,0,1A.89.89,0,0,1,40.61,93.56Z"/><path class="cls-2" d="M44.22,93.21l2,5.76,1.95-5.8a6,6,0,0,1,.23-.63.76.76,0,0,1,.25-.32.71.71,0,0,1,.48-.15.84.84,0,0,1,.41.11.86.86,0,0,1,.3.3.75.75,0,0,1,.11.37,1,1,0,0,1,0,.28,2.45,2.45,0,0,1-.08.29l-.11.3-2.08,5.61c-.07.22-.15.42-.22.61a2.42,2.42,0,0,1-.26.51,1.12,1.12,0,0,1-.39.36,1.1,1.1,0,0,1-.59.14,1.21,1.21,0,0,1-.6-.13,1.15,1.15,0,0,1-.39-.37,2.44,2.44,0,0,1-.26-.51c-.08-.19-.15-.39-.23-.61l-2-5.56c0-.11-.07-.21-.11-.3a1.68,1.68,0,0,1-.09-.32,1.11,1.11,0,0,1,0-.29.75.75,0,0,1,.24-.54.79.79,0,0,1,.6-.25.7.7,0,0,1,.63.27A3.69,3.69,0,0,1,44.22,93.21Z"/><path class="cls-2" d="M56.87,93.56H53v2.11h3.6a.86.86,0,0,1,.6.18.6.6,0,0,1,.2.47.64.64,0,0,1-.2.48.86.86,0,0,1-.6.18H53v2.45h4a.89.89,0,0,1,.62.19.63.63,0,0,1,.21.5.64.64,0,0,1-.21.5.94.94,0,0,1-.62.19H52.27a.9.9,0,0,1-1.06-1.07V93.28a1.36,1.36,0,0,1,.11-.61.65.65,0,0,1,.35-.34,1.31,1.31,0,0,1,.6-.11h4.6a.89.89,0,0,1,.61.18.68.68,0,0,1,0,1A.89.89,0,0,1,56.87,93.56Z"/><path class="cls-2" d="M60.91,93.13v6.25h3.53a1,1,0,0,1,.65.2.67.67,0,0,1,.22.52.64.64,0,0,1-.22.51,1,1,0,0,1-.65.2h-4.2a.91.91,0,0,1-1.07-1.07V93.13a1.11,1.11,0,0,1,.24-.79.8.8,0,0,1,.63-.27.83.83,0,0,1,.63.26A1.16,1.16,0,0,1,60.91,93.13Z"/><path class="cls-2" d="M69.64,92.07a4.59,4.59,0,0,1,2.29.54,3.59,3.59,0,0,1,1.45,1.54,5.25,5.25,0,0,1,.5,2.35,5.69,5.69,0,0,1-.27,1.81,3.78,3.78,0,0,1-.81,1.41,3.49,3.49,0,0,1-1.33.92,4.78,4.78,0,0,1-1.8.31,4.66,4.66,0,0,1-1.8-.32,3.53,3.53,0,0,1-1.33-.92,4,4,0,0,1-.81-1.42,5.85,5.85,0,0,1-.27-1.8,5.56,5.56,0,0,1,.29-1.82,3.68,3.68,0,0,1,.82-1.4,3.51,3.51,0,0,1,1.31-.89A4.64,4.64,0,0,1,69.64,92.07Zm2.47,4.42a4.05,4.05,0,0,0-.3-1.63,2.34,2.34,0,0,0-.87-1,2.37,2.37,0,0,0-1.3-.36,2.4,2.4,0,0,0-1,.2,2.21,2.21,0,0,0-.76.57,2.72,2.72,0,0,0-.5,1,4.65,4.65,0,0,0,0,2.63,2.73,2.73,0,0,0,.52,1,2.24,2.24,0,0,0,.77.58,2.31,2.31,0,0,0,3.08-1.17A4,4,0,0,0,72.11,96.49Z"/><path class="cls-2" d="M78.7,97.46H77.1v2.43a1.18,1.18,0,0,1-.24.8.84.84,0,0,1-.62.26.8.8,0,0,1-.64-.26,1.14,1.14,0,0,1-.24-.78V93.28a1.08,1.08,0,0,1,.27-.82,1.19,1.19,0,0,1,.83-.24H78.7a5.88,5.88,0,0,1,1.52.15,2.23,2.23,0,0,1,.91.49,2,2,0,0,1,.58.83,2.82,2.82,0,0,1,.2,1.11,2.49,2.49,0,0,1-.8,2A3.7,3.7,0,0,1,78.7,97.46Zm-.42-3.94H77.1v2.63h1.18a3.29,3.29,0,0,0,1-.13,1.16,1.16,0,0,0,.63-.42,1.23,1.23,0,0,0,.22-.77,1.28,1.28,0,0,0-.33-.92A2.2,2.2,0,0,0,78.28,93.52Z"/><path class="cls-2" d="M86.27,99.51,84.89,94V100a1.07,1.07,0,0,1-.22.74.82.82,0,0,1-1.16,0,1.11,1.11,0,0,1-.22-.74v-6.8a.88.88,0,0,1,.29-.76,1.44,1.44,0,0,1,.8-.19h.53a2,2,0,0,1,.71.09.56.56,0,0,1,.33.31,4.77,4.77,0,0,1,.24.75l1.24,4.7,1.25-4.7a4.77,4.77,0,0,1,.24-.75.56.56,0,0,1,.33-.31,2,2,0,0,1,.7-.09h.54a1.4,1.4,0,0,1,.79.19.86.86,0,0,1,.3.76V100a1.13,1.13,0,0,1-.22.74.78.78,0,0,1-.59.24.75.75,0,0,1-.57-.24A1.07,1.07,0,0,1,90,100V94L88.6,99.51c-.09.36-.16.62-.22.79a1.18,1.18,0,0,1-.31.45,1.1,1.1,0,0,1-1.15.07,1,1,0,0,1-.33-.33,1.7,1.7,0,0,1-.18-.46C86.36,99.87,86.31,99.69,86.27,99.51Z"/><path class="cls-2" d="M99,93.56H95.1v2.11h3.61a.86.86,0,0,1,.6.18.6.6,0,0,1,.19.47.63.63,0,0,1-.19.48.86.86,0,0,1-.6.18H95.1v2.45h4.06a.89.89,0,0,1,.62.19.62.62,0,0,1,.2.5.63.63,0,0,1-.2.5.94.94,0,0,1-.62.19H94.43a.91.91,0,0,1-1.07-1.07V93.28a1.51,1.51,0,0,1,.11-.61.72.72,0,0,1,.35-.34,1.36,1.36,0,0,1,.61-.11H99a.9.9,0,0,1,.62.18.7.7,0,0,1,0,1A.9.9,0,0,1,99,93.56Z"/><path class="cls-2" d="M103.63,93.11,107,98.18V93.07a1.16,1.16,0,0,1,.21-.75.81.81,0,0,1,1.17,0,1.1,1.1,0,0,1,.22.75v6.75c0,.76-.31,1.13-.94,1.13a1.42,1.42,0,0,1-.42-.06,1.2,1.2,0,0,1-.35-.22,2.06,2.06,0,0,1-.31-.34l-.28-.4-3.26-5v5a1.07,1.07,0,0,1-.23.74.74.74,0,0,1-.58.25.76.76,0,0,1-.6-.25,1.09,1.09,0,0,1-.22-.74V93.33a1.94,1.94,0,0,1,.09-.66,1,1,0,0,1,.37-.43,1,1,0,0,1,.56-.17,1,1,0,0,1,.4.08,1,1,0,0,1,.29.2,2,2,0,0,1,.26.34C103.45,92.82,103.54,93,103.63,93.11Z"/><path class="cls-2" d="M116.06,93.65h-1.9v6.24a1.14,1.14,0,0,1-.24.8.77.77,0,0,1-.62.26.79.79,0,0,1-.63-.26,1.14,1.14,0,0,1-.24-.8V93.65h-1.9a1,1,0,0,1-.66-.19.66.66,0,0,1-.22-.52.67.67,0,0,1,.23-.53,1,1,0,0,1,.65-.19h5.53a.93.93,0,0,1,.67.2.65.65,0,0,1,.22.52.66.66,0,0,1-.22.52A1,1,0,0,1,116.06,93.65Z"/><path class="cls-2" d="M15.36,108.44a1.81,1.81,0,0,1,.28-1,1.91,1.91,0,0,1,.84-.71,2.89,2.89,0,0,1,1.29-.27,2.72,2.72,0,0,1,1.28.28,1.82,1.82,0,0,1,.8.72,1.72,1.72,0,0,1,.27.92,1.68,1.68,0,0,1-.43,1.15,5.81,5.81,0,0,1-1.28,1l.55.65.48.57.43.45c.06-.11.15-.32.27-.62a2.48,2.48,0,0,1,.35-.65.55.55,0,0,1,.45-.2.7.7,0,0,1,.49.2.63.63,0,0,1,.21.48,2.18,2.18,0,0,1-.18.72,6.47,6.47,0,0,1-.53,1.05q.21.19.69.57a4.56,4.56,0,0,1,.58.52.57.57,0,0,1,.11.36.71.71,0,0,1-.22.52.69.69,0,0,1-.49.2.93.93,0,0,1-.54-.17c-.17-.12-.53-.41-1.09-.86a4.09,4.09,0,0,1-.79.58,3,3,0,0,1-.87.34,4.2,4.2,0,0,1-1,.11,3.89,3.89,0,0,1-1.32-.21,2.67,2.67,0,0,1-1-.58,2.27,2.27,0,0,1-.57-.8,2.24,2.24,0,0,1-.19-.9,2.38,2.38,0,0,1,.14-.81,2.48,2.48,0,0,1,.4-.66,3.77,3.77,0,0,1,.62-.56,6.89,6.89,0,0,1,.87-.52,6.63,6.63,0,0,1-.67-1A1.89,1.89,0,0,1,15.36,108.44ZM17,111.25a3.51,3.51,0,0,0-.9.69,1.19,1.19,0,0,0-.29.82,1.25,1.25,0,0,0,.1.51,1.59,1.59,0,0,0,.32.46,1.39,1.39,0,0,0,.48.32,1.47,1.47,0,0,0,.58.12,1.86,1.86,0,0,0,.58-.1,2,2,0,0,0,.54-.27,3.19,3.19,0,0,0,.52-.43,12,12,0,0,1-.94-1Q17.59,112,17,111.25Zm.59-1.61a5.77,5.77,0,0,0,.87-.64.82.82,0,0,0,.26-.63.78.78,0,0,0-.26-.61,1,1,0,0,0-.67-.25,1,1,0,0,0-.68.26.76.76,0,0,0-.27.59.83.83,0,0,0,.1.38,3.68,3.68,0,0,0,.25.4Z"/><path class="cls-2" d="M27.63,106.62H29.9a6.11,6.11,0,0,1,1.52.16,2.88,2.88,0,0,1,1.15.62,4.35,4.35,0,0,1,1.34,3.49,6.73,6.73,0,0,1-.14,1.41,4.34,4.34,0,0,1-.41,1.15,3.76,3.76,0,0,1-.72.92,3.12,3.12,0,0,1-.76.5,3.59,3.59,0,0,1-.88.26,6.83,6.83,0,0,1-1.06.08H27.67a1.38,1.38,0,0,1-.72-.15.65.65,0,0,1-.31-.4,2.53,2.53,0,0,1-.07-.68v-6.3a.91.91,0,0,1,1.06-1.06Zm.68,1.38v5.83h1.32a5.82,5.82,0,0,0,.67,0,1.58,1.58,0,0,0,.51-.12,1.38,1.38,0,0,0,.46-.26,3.18,3.18,0,0,0,.87-2.54,3.74,3.74,0,0,0-.38-1.91,1.69,1.69,0,0,0-1-.8,4.44,4.44,0,0,0-1.35-.17Z"/><path class="cls-2" d="M41.1,108H37.18v2.11h3.61a.85.85,0,0,1,.59.18.6.6,0,0,1,.2.47.64.64,0,0,1-.2.48.82.82,0,0,1-.59.18H37.18v2.45h4a.87.87,0,0,1,.62.19.63.63,0,0,1,.21.5.64.64,0,0,1-.21.5.92.92,0,0,1-.62.19H36.5a1.14,1.14,0,0,1-.81-.25,1.12,1.12,0,0,1-.25-.82v-6.46a1.36,1.36,0,0,1,.11-.61.65.65,0,0,1,.35-.34,1.34,1.34,0,0,1,.6-.11h4.6a.92.92,0,0,1,.62.18.7.7,0,0,1,0,1A.92.92,0,0,1,41.1,108Z"/><path class="cls-2" d="M50,112.63a2.57,2.57,0,0,1-.4,1.4,2.66,2.66,0,0,1-1.18,1,4.27,4.27,0,0,1-1.83.35,4.13,4.13,0,0,1-2.1-.48,2.7,2.7,0,0,1-1-.92,2,2,0,0,1-.37-1.12.77.77,0,0,1,.78-.77.66.66,0,0,1,.47.18,1.41,1.41,0,0,1,.32.52,3.3,3.3,0,0,0,.36.68,1.34,1.34,0,0,0,.53.46,2,2,0,0,0,.91.18,2,2,0,0,0,1.26-.36,1.09,1.09,0,0,0,.48-.9.94.94,0,0,0-.26-.7,1.71,1.71,0,0,0-.67-.4,9.27,9.27,0,0,0-1.11-.3,9.08,9.08,0,0,1-1.55-.51,2.59,2.59,0,0,1-1-.79,2.08,2.08,0,0,1-.36-1.25,2.2,2.2,0,0,1,.38-1.26,2.43,2.43,0,0,1,1.12-.84,4.57,4.57,0,0,1,1.73-.3,4.24,4.24,0,0,1,1.36.2,2.74,2.74,0,0,1,1,.52,2.16,2.16,0,0,1,.56.68,1.53,1.53,0,0,1,.17.7.81.81,0,0,1-.22.56.71.71,0,0,1-.54.25.65.65,0,0,1-.46-.15,2,2,0,0,1-.33-.49,2.3,2.3,0,0,0-.57-.76,1.65,1.65,0,0,0-1-.27,1.9,1.9,0,0,0-1.09.29.88.88,0,0,0-.41.72.66.66,0,0,0,.14.44,1.05,1.05,0,0,0,.39.32,2.58,2.58,0,0,0,.49.21c.17.06.45.13.84.23s.92.24,1.31.37a3.89,3.89,0,0,1,1,.5,2.1,2.1,0,0,1,.65.74A2.45,2.45,0,0,1,50,112.63Z"/><path class="cls-2" d="M51.52,114.29v-6.76a1.11,1.11,0,0,1,.24-.79.78.78,0,0,1,.62-.27.83.83,0,0,1,.63.26,1.16,1.16,0,0,1,.25.8v6.76a1.14,1.14,0,0,1-.25.8.88.88,0,0,1-1.25,0A1.16,1.16,0,0,1,51.52,114.29Z"/><path class="cls-2" d="M63.05,111.72v1.64a1.54,1.54,0,0,1-.07.53.79.79,0,0,1-.23.35,2.35,2.35,0,0,1-.45.31,7.07,7.07,0,0,1-1.5.61,6,6,0,0,1-1.57.19,5.15,5.15,0,0,1-1.8-.3,3.76,3.76,0,0,1-1.39-.88,3.92,3.92,0,0,1-.88-1.41,5.17,5.17,0,0,1-.31-1.85,5.36,5.36,0,0,1,.3-1.83,3.73,3.73,0,0,1,2.29-2.3,5.28,5.28,0,0,1,1.89-.31,4.78,4.78,0,0,1,1.53.23,3.4,3.4,0,0,1,1.09.59,2.63,2.63,0,0,1,.62.74,1.5,1.5,0,0,1,.21.7.76.76,0,0,1-.24.56.83.83,0,0,1-.58.23.74.74,0,0,1-.36-.09.71.71,0,0,1-.29-.25,7.77,7.77,0,0,0-.55-.76,1.85,1.85,0,0,0-.6-.43,2.22,2.22,0,0,0-1-.18,2.63,2.63,0,0,0-1.08.21,2.12,2.12,0,0,0-.81.61,2.61,2.61,0,0,0-.52,1,4.3,4.3,0,0,0-.18,1.28,3.44,3.44,0,0,0,.7,2.32,2.38,2.38,0,0,0,1.93.82,4.19,4.19,0,0,0,1.14-.16,6.44,6.44,0,0,0,1.07-.45V112H60.11a1.59,1.59,0,0,1-.74-.14.53.53,0,0,1-.25-.5.63.63,0,0,1,.21-.48.84.84,0,0,1,.56-.18h2a2.62,2.62,0,0,1,.61.06.67.67,0,0,1,.41.29A1.12,1.12,0,0,1,63.05,111.72Z"/><path class="cls-2" d="M67,107.51l3.35,5.07v-5.11a1.16,1.16,0,0,1,.21-.75.81.81,0,0,1,1.17,0,1.1,1.1,0,0,1,.22.75v6.75c0,.76-.31,1.13-.94,1.13a1.33,1.33,0,0,1-.42-.06,1.08,1.08,0,0,1-.35-.22,2.06,2.06,0,0,1-.31-.34c-.09-.13-.19-.26-.28-.4l-3.26-5v5a1.07,1.07,0,0,1-.23.74.82.82,0,0,1-1.18,0,1.09,1.09,0,0,1-.22-.74v-6.63a1.94,1.94,0,0,1,.09-.66,1,1,0,0,1,.37-.43,1,1,0,0,1,.56-.17,1,1,0,0,1,.4.08,1,1,0,0,1,.29.2,2,2,0,0,1,.26.34C66.79,107.22,66.88,107.37,67,107.51Z"/><path class="cls-2" d="M78.84,108.05c.25-.11.49-.23.72-.35l.56-.26a1,1,0,0,1,.32-.08.52.52,0,0,1,.36.14.45.45,0,0,1,.15.34.52.52,0,0,1-.08.25.39.39,0,0,1-.15.16,7.56,7.56,0,0,1-1.67.43c.11.1.25.24.41.41l.25.26a2.61,2.61,0,0,0,.25.31l.22.28a.49.49,0,0,1,.06.25.45.45,0,0,1-.14.33.53.53,0,0,1-.37.14c-.14,0-.31-.11-.5-.34a7.62,7.62,0,0,1-.71-1.25l-.6,1.07a2,2,0,0,1-.29.39.48.48,0,0,1-.33.13.49.49,0,0,1-.36-.15.47.47,0,0,1-.14-.32.43.43,0,0,1,.06-.24A8.82,8.82,0,0,1,78,108.68c-.33-.05-.62-.11-.88-.17a5.58,5.58,0,0,1-.82-.27.41.41,0,0,1-.13-.17.43.43,0,0,1-.07-.23.45.45,0,0,1,.15-.34.49.49,0,0,1,.34-.14,1,1,0,0,1,.35.09c.14,0,.32.14.54.24l.74.36c0-.24-.09-.52-.13-.84s0-.54,0-.66a.57.57,0,0,1,.14-.37.46.46,0,0,1,.36-.15.43.43,0,0,1,.34.15.57.57,0,0,1,.14.41,1.83,1.83,0,0,1,0,.28q0,.21-.06.51C78.9,107.57,78.87,107.8,78.84,108.05Z"/><path class="cls-2" d="M84.23,107.66l-1.64,6.76c0,.22-.1.4-.14.52a.65.65,0,0,1-.19.31.53.53,0,0,1-.36.1q-.6,0-.6-.51a4.28,4.28,0,0,1,.12-.67l1.63-6.76a3,3,0,0,1,.25-.74.49.49,0,0,1,.45-.2.65.65,0,0,1,.45.14.5.5,0,0,1,.16.39A2.88,2.88,0,0,1,84.23,107.66Z"/><path class="cls-2" d="M117.17,132.31H12.5A12.52,12.52,0,0,1,0,119.81V87.14a12.52,12.52,0,0,1,12.5-12.5H117.17a12.52,12.52,0,0,1,12.5,12.5v32.67A12.52,12.52,0,0,1,117.17,132.31ZM12.5,75.64A11.51,11.51,0,0,0,1,87.14v32.67a11.51,11.51,0,0,0,11.5,11.5H117.17a11.51,11.51,0,0,0,11.5-11.5V87.14a11.51,11.51,0,0,0-11.5-11.5Z"/></g><path class="cls-2" d="M3.77,2.26A5,5,0,0,1,4.89,2c3.12-.1,6.23-.18,9.35-.25a8.3,8.3,0,0,1,5.9,1.9A6.36,6.36,0,0,1,19,14.26l-.79.43a36.09,36.09,0,0,1,3.86,2,8.06,8.06,0,0,1,2.32,10.45,6.83,6.83,0,0,1-2.79,2.45,17,17,0,0,1-7.81,1.49c-2.91-.06-5.82,0-8.74-.06a6,6,0,0,1-1.24-.24v-1c.23-.05.46-.11.7-.15,1.9-.36,2.23-.47,2.28-2.42C6.92,20.67,7,14,6.93,7.42c-.06-4.22-1-3.68-3.16-4.2Zm7,13.78c0,4.09,0,8.08,0,12.06a1.25,1.25,0,0,0,1.38,1.34,30.29,30.29,0,0,0,4-.14,5.4,5.4,0,0,0,4.77-4,7.07,7.07,0,0,0-1.08-6.06C17.66,16,14.29,15.91,10.76,16Zm-.19-1.57,2.78-.19c3.62-.25,5.32-2.2,5-5.8A5.53,5.53,0,0,0,12,3.38c-.39.07-1,.55-1,.86C10.82,7.58,10.71,10.92,10.57,14.47Z"/><path class="cls-2" d="M122.33,16.18a12.06,12.06,0,0,1-1.62,1.65c-.67.45-1.43.6-1.65-.6a1.06,1.06,0,0,0-.63-.63c-1.06-.39-3.52,1.21-3.54,2.36,0,3,0,6.06,0,9.09,0,1,.45,1.45,1.49,1.34.71-.08,1.44,0,2.15-.06,1-.07,1.24.32.78,1.54-3.24,0-6.58,0-9.93,0-.23,0-.45-.32-.68-.5.19-.21.37-.6.58-.61a2.08,2.08,0,0,0,2-2.29c.11-2.91.08-5.82.11-8.73,0-1.22-.51-1.76-1.77-1.61a3.19,3.19,0,0,1-1.14-.33c.21-.42.31-1,.66-1.23,1.51-.95,3.1-1.79,4.65-2.69.79-.46,1.11-.2,1.12.64v2.76c1.43-.86,2.69-1.59,3.94-2.35a2.13,2.13,0,0,1,3.23.84l.3.48Z"/><path class="cls-2" d="M122.33,52.18a12.06,12.06,0,0,1-1.62,1.65c-.67.45-1.43.6-1.65-.6a1.06,1.06,0,0,0-.63-.63c-1.06-.39-3.52,1.21-3.54,2.36,0,3,0,6.06,0,9.09,0,1,.45,1.45,1.49,1.34.71-.08,1.44,0,2.16-.06,1-.07,1.25.31.75,1.54-3.22,0-6.56,0-9.91,0-.23,0-.45-.32-.68-.5.19-.21.37-.6.58-.61a2.08,2.08,0,0,0,2-2.29c.11-2.91.08-5.82.11-8.73,0-1.22-.51-1.76-1.77-1.61a3.19,3.19,0,0,1-1.14-.33c.21-.42.31-1,.66-1.23,1.51-.95,3.1-1.79,4.65-2.69.79-.46,1.11-.2,1.12.64v2.76c1.43-.86,2.69-1.59,3.94-2.35a2.13,2.13,0,0,1,3.23.84l.3.48Z"/><path class="cls-2" d="M47,65.91C50,65.07,50,65,50.09,62c.09-5.4.2-10.79.22-16.19a41.1,41.1,0,0,0-.4-4.4,2.1,2.1,0,0,0-1.92-2c-.36-.08-.65-.5-1-.76.38-.23.75-.65,1.14-.67,3-.13,6.07-.17,9.11-.26a8.42,8.42,0,0,1,6.2,2,6.36,6.36,0,0,1-1.26,10.49l-.64.36a34.38,34.38,0,0,1,4.77,3.13,8,8,0,0,1,.94,9.92,6.81,6.81,0,0,1-2.57,2,17.1,17.1,0,0,1-7.45,1.45c-3.08,0-6.15,0-9.22,0C47,67.08,47,67.08,47,65.91ZM54,52c0,4.08,0,8,0,12a1.36,1.36,0,0,0,1.55,1.45,30.13,30.13,0,0,0,3.81-.14,5.52,5.52,0,0,0,4.81-3.79,7.33,7.33,0,0,0-3.73-8.6C58.39,52,56.25,52,54,52Zm-.19-1.48c1.66-.19,3-.27,4.25-.52a4.14,4.14,0,0,0,3.49-3.46c.88-4.14-2.27-7.82-6.22-7.21-.39.06-1,.44-1,.7C54,43.47,53.92,46.88,53.76,50.55Z"/><path class="cls-2" d="M9.44,51.32a26.14,26.14,0,0,1-2.29-3.6,4.07,4.07,0,0,1,1.11-5,30,30,0,0,1,4.36-2.65,1.69,1.69,0,0,1,1.05-.1,6,6,0,0,1,4.63,5.58,4.66,4.66,0,0,1-.84,2.27,27.28,27.28,0,0,1-2.37,2.63c3.1,1.27,4.7,3.82,6.2,6.88.79-1.67,1.52-3.06,2.12-4.5.49-1.18.79-2.42,1.23-3.62a1.58,1.58,0,0,0-1.05-2.26,3.84,3.84,0,0,1-.6-.33c0-1.09.51-1.26,1.48-1,1.39.32,2.84.41,4.24.68.4.08,1,.36,1.07.67.19.65-.45.71-.94.92a2.83,2.83,0,0,0-1.46,1.06c-1.69,3.39-3.29,6.82-4.89,10.25a.8.8,0,0,0,0,.66,37,37,0,0,0,2.74,4.31c.84,1,1.85.94,2.78-.08.59-.64,1-1.47,1.55-2.12.28-.31.82-.38,1.24-.56.05.43.27.93.12,1.26-1,2.26-2.32,4.2-5.2,4.27a4.66,4.66,0,0,1-3.81-1.66c-.63-.71-1.14-1.53-1.8-2.43-.34.38-.69.79-1.05,1.18a9.6,9.6,0,0,1-9,3c-3.65-.55-6.19-4.61-5.72-8.64.34-2.88,2-4.8,4.2-6.38Zm3.49,13.27a7.06,7.06,0,0,0,6-3.35.8.8,0,0,0,.12-.66c-1.13-2.59-2.22-5.22-4.65-7S11.35,52,9.27,54a6.28,6.28,0,0,0-1.11,7.1A5.59,5.59,0,0,0,12.93,64.59Zm2.62-18.36a4.27,4.27,0,0,0-3.81-3.79,3.17,3.17,0,0,0-2.63,1.81,1.78,1.78,0,0,0,.29,2.4,31.44,31.44,0,0,0,3.37,2.56,1,1,0,0,0,.88,0A3.37,3.37,0,0,0,15.55,46.23Z"/><path class="cls-2" d="M75.53,30.81a6.46,6.46,0,0,0,1.48.5c1.76.12,3.51.15,5.27.24.64,0,1.27.1,1.9.19,1.63.23,3.06.82,3.59,2.53a5.06,5.06,0,0,1-1,5.15,12.32,12.32,0,0,1-8.4,3.84A16.7,16.7,0,0,1,74,43a4.21,4.21,0,0,1-3.45-3.41A4.21,4.21,0,0,1,72.07,35l1.61-1.26c-.54-1-1.09-1.89-1.52-2.84-.28-.64,0-1.15.68-1.45,1-.47,2.07-1,3.24-1.54a5.25,5.25,0,0,0-.65-.34C70,25.53,70.18,19.22,73,16.11A8,8,0,0,1,82.49,14a4.58,4.58,0,0,0,1.61.28c1.43,0,2.86,0,4.53,0l-.74,3-2.56-.6a26.58,26.58,0,0,1,.61,4.07,6.43,6.43,0,0,1-3.48,5.77c-1.65,1-3.39,1.76-5.08,2.67-.65.35-1.25.79-1.88,1.2Zm7.21-9a8.19,8.19,0,0,0-1.57-5A3.88,3.88,0,0,0,77,15.21a3.84,3.84,0,0,0-2.89,3.3c-.6,3.14.49,5.15,3.73,7a3.07,3.07,0,0,0,4.65-2A14,14,0,0,0,82.74,21.81Zm-3,12.76v.14H78.13c-.56,0-1.11,0-1.67-.08a4,4,0,0,0-3.69,2.51c-.34,1.12.36,2.24,1.91,3.08,2.63,1.42,7.6.89,9.9-1a2.6,2.6,0,0,0,1-3A2.38,2.38,0,0,0,83,34.57Z"/><path class="cls-2" d="M65.27,29.32a21.6,21.6,0,0,1,2.14-.56c.27,0,.84.19.84.29,0,.37-.09,1-.32,1.08-1.65.68-3.34,1.29-5,1.87-.72.24-1.15-.15-1.27-.86s-.2-1.34-.31-2.08c-1.16.46-2.27,1-3.43,1.36-4.61,1.54-9-.93-9.9-5.5a9.47,9.47,0,0,1,4.29-9.71c2.72-1.66,5.6-2.52,8.78-1.49a1.42,1.42,0,0,0,.36,0,.59.59,0,0,0,.2,0c0-3,0-6,0-8.92,0-.84-.7-.76-1.35-.73-.42,0-1.08-.12-1.23-.4-.33-.63.21-.92.76-1.18C61.35,1.73,62.88.88,64.46.12a1.93,1.93,0,0,1,1.19,0c.11,0,.14.6.12.92-.25,3.79-.63,7.57-.73,11.36C64.9,17.18,65,22,65,26.86,65,27.6,65.15,28.34,65.27,29.32Zm-3.9-7.14h.18c0-1.35-.06-2.71,0-4.06a1.38,1.38,0,0,0-1.06-1.62c-1.23-.33-2.47-.59-3.71-.83a4.6,4.6,0,0,0-4.39,1.61,5.89,5.89,0,0,0-1.36,4.78c.34,5.38,5.22,8.12,9.66,5.4a1.58,1.58,0,0,0,.63-1.09C61.42,25,61.37,23.58,61.37,22.18Z"/><path class="cls-2" d="M38.3,22.15A34.92,34.92,0,0,0,38.07,18a2.88,2.88,0,0,0-2.64-2.41c-1.58-.26-2.3.6-1.92,2.37-.71.34-1.47.67-2.18,1.07-.9.52-1.39.1-1.3-.73a3.91,3.91,0,0,1,.88-2.22,10.16,10.16,0,0,1,5.84-2.78C39,13,41.56,15.39,41.66,18c.08,2.19-.06,4.39-.1,6.58a17.5,17.5,0,0,0,0,2.51c.27,1.9.47,2,2.33,1.33.29-.1.8-.16.93,0a1.3,1.3,0,0,1,.13,1c0,.21-.35.4-.58.51-.93.45-1.87.9-2.82,1.3-1.51.64-2,.45-2.81-1l-.44-.82a18.56,18.56,0,0,1-2,1,16.92,16.92,0,0,1-3.61,1.12c-2.18.28-3.28-.77-3.48-3-.22-2.56.47-3.85,2.89-4.7C34,23.19,36,22.77,38.3,22.15Zm-.22,2a7.38,7.38,0,0,0-4.87,1.27,1.78,1.78,0,0,0-.64,2.14c.26.61.87,1.62,1.16,1.57A30.52,30.52,0,0,0,38,27.81c.08,0,.1-.29.1-.44C38.08,26.34,38.08,25.31,38.08,24.14Z"/><path class="cls-2" d="M99.74,58.15A34.81,34.81,0,0,0,99.51,54a2.88,2.88,0,0,0-2.64-2.41c-1.58-.26-2.29.6-1.92,2.37-.71.35-1.47.67-2.18,1.08-.9.51-1.39.09-1.3-.74a3.91,3.91,0,0,1,.88-2.22,10.19,10.19,0,0,1,5.84-2.78c2.29-.33,4.81,2.08,4.91,4.7.08,2.19-.06,4.39-.1,6.58a17.5,17.5,0,0,0,0,2.51c.27,1.89.47,2,2.33,1.33.29-.1.8-.16.93,0a1.26,1.26,0,0,1,.13,1c0,.21-.35.4-.58.51-.93.45-1.87.9-2.82,1.3-1.51.64-2,.45-2.81-1l-.44-.82a21.64,21.64,0,0,1-2.1,1,16.08,16.08,0,0,1-3.51,1.06c-2.18.27-3.28-.77-3.48-3-.22-2.57.47-3.85,2.89-4.71C95.46,59.19,97.45,58.77,99.74,58.15Zm-.22,2.06a7,7,0,0,0-4.88,1.2A1.79,1.79,0,0,0,94,63.55c.25.61.87,1.62,1.15,1.57a31.07,31.07,0,0,0,4.25-1.31c.07,0,.09-.3.09-.45C99.52,62.33,99.52,61.31,99.52,60.21Z"/><path class="cls-2" d="M94.69,21.75c-.08,2.72.68,5,3,6.38,2.45,1.5,4.67.36,6.84-1,.52.37,1,.78.29,1.34A11.93,11.93,0,0,1,99.21,31c-3.38.45-5.7-.87-7.16-4a10.34,10.34,0,0,1,3.39-12.76C99.05,12,102.52,14,104,16.43c.33.56.93.95,1.33,1.49a1.17,1.17,0,0,1,.18,1,1.32,1.32,0,0,1-.84.63c-3,.67-5.91,1.3-8.86,1.95C95.46,21.54,95.12,21.64,94.69,21.75Zm6.71-3.15.25-.45a19.28,19.28,0,0,0-2.6-2.44,2.18,2.18,0,0,0-3.18.47,30.71,30.71,0,0,0-1.34,3.7l.33.26Z"/><path class="cls-2" d="M86.53,54.14c.53.93.11,1.26-.84,1.45-3.24.64-6.45,1.4-9.71,2.13-.12,2.63.61,4.85,2.79,6.31,2.5,1.67,4.79.47,7-.93.49.42,1,.93.22,1.37A22.48,22.48,0,0,1,80.56,67c-3.28.73-5.72-.76-7.2-3.81a10.36,10.36,0,0,1,2.35-12c3.31-3,7.61-2.24,9.74,1.68A9.13,9.13,0,0,0,86.53,54.14Zm-3.71.42a5,5,0,0,0-2.54-2.9c-1-.46-2.15-.67-3,.31A7.2,7.2,0,0,0,76,56.19Z"/></g></g></svg>